<?xml version="1.0" standalone="no"?>
<!DOCTYPE svg PUBLIC "-//W3C//DTD SVG 20010904//EN"
 "http://www.w3.org/TR/2001/REC-SVG-20010904/DTD/svg10.dtd">
<svg version="1.0" xmlns="http://www.w3.org/2000/svg"
 width="873.000000pt" height="1001.000000pt" viewBox="0 0 873.000000 1001.000000"
 preserveAspectRatio="xMidYMid meet">
<metadata>
Created by potrace 1.16, written by Peter Selinger 2001-2019
</metadata>
<g transform="translate(0.000000,1001.000000) scale(0.100000,-0.100000)"
fill="#000000" stroke="none">
<path d="M2979 9984 c-8 -9 -23 -35 -34 -58 -26 -54 -54 -58 -105 -17 -39 31
-77 39 -109 21 -12 -6 -31 -5 -54 2 -31 10 -42 8 -71 -7 -29 -16 -39 -17 -61
-7 -39 18 -68 15 -105 -13 -19 -14 -45 -25 -59 -25 -13 0 -32 -7 -41 -15 -9
-8 -52 -20 -96 -26 -101 -15 -163 -46 -244 -124 -36 -34 -104 -87 -152 -118
-71 -46 -87 -61 -90 -84 -3 -27 -5 -28 -78 -33 -60 -4 -79 -9 -98 -27 -12 -13
-25 -23 -29 -23 -5 0 -48 -38 -96 -85 l-88 -84 6 -45 c6 -39 4 -46 -15 -56
-18 -10 -32 -7 -84 16 -62 28 -145 41 -189 30 -15 -3 -51 -41 -95 -100 -62
-82 -79 -98 -134 -125 -88 -44 -171 -57 -264 -42 -40 7 -78 10 -82 7 -5 -3
-45 1 -88 8 -101 18 -239 23 -331 12 -40 -4 -73 -9 -73 -10 0 -3 631 -1055
656 -1093 17 -28 44 -20 44 13 0 30 28 45 72 38 29 -5 38 -2 52 17 9 13 16 33
16 45 0 23 29 54 51 54 49 0 81 68 55 117 -22 43 9 72 58 53 23 -8 64 12 130
63 7 6 166 -65 410 -182 369 -177 416 -198 416 -187 0 2 7 20 15 40 15 36 15
37 -10 46 -33 13 -33 50 0 86 23 25 25 35 25 121 0 91 -1 94 -26 103 -22 9
-25 14 -19 39 3 17 2 32 -4 36 -20 12 -11 25 16 25 18 0 35 10 49 27 17 21 25
25 35 16 11 -9 20 -6 39 9 16 14 21 22 13 25 -21 7 -15 49 9 65 25 17 18 35
-18 48 -30 12 -30 22 0 57 22 25 30 28 77 26 34 -2 62 3 76 12 12 8 36 15 53
15 20 0 40 9 58 27 15 15 31 26 36 25 5 -2 16 0 25 3 13 5 12 9 -8 24 l-24 18
22 32 c12 17 26 31 30 31 4 0 7 19 7 43 -1 34 2 42 17 41 10 -1 17 5 17 17 0
10 9 23 20 29 13 7 20 21 20 40 0 16 4 31 9 34 5 4 4 19 -2 36 -19 49 -1 65
71 65 67 0 80 6 57 25 -20 16 -19 46 1 54 8 3 32 3 53 0 47 -8 66 12 58 60 -6
40 11 61 42 53 12 -3 27 3 37 14 9 10 27 19 40 19 15 0 33 15 57 49 24 34 49
54 81 67 38 16 50 28 72 73 26 50 27 56 16 110 -17 80 -15 138 6 173 17 30 17
30 -6 46 -13 8 -37 35 -53 59 -32 47 -65 56 -90 27z m-1019 -1084 c0 -97 -1
-100 -22 -99 -13 1 -31 -2 -40 -6 -25 -10 -68 36 -68 73 0 40 40 77 74 68 24
-6 26 -4 26 29 0 24 5 35 15 35 12 0 15 -18 15 -100z m140 20 c25 -25 26 -71
3 -98 -18 -21 -32 -26 -65 -23 -49 3 -68 96 -26 125 31 22 64 20 88 -4z"/>
<path d="M6405 9428 c-3 -13 -4 -106 -3 -208 l3 -185 28 -3 27 -3 0 210 0 211
-25 0 c-17 0 -26 -7 -30 -22z"/>
<path d="M5788 9423 c-16 -4 -18 -22 -18 -199 l0 -194 69 0 c107 0 165 31 177
95 7 40 -17 91 -51 107 l-24 11 30 24 c59 50 28 141 -52 157 -35 7 -104 6
-131 -1z m147 -53 c8 -7 15 -25 15 -39 0 -45 -21 -63 -78 -69 l-52 -5 0 68 0
68 50 -5 c27 -3 56 -11 65 -18z m-1 -171 c26 -20 36 -69 18 -95 -13 -20 -50
-34 -91 -34 l-41 0 0 75 0 75 44 0 c29 0 52 -7 70 -21z"/>
<path d="M6133 9300 c-48 -29 -66 -72 -61 -143 4 -54 8 -63 41 -93 30 -28 45
-34 82 -34 91 0 145 54 145 145 0 87 -54 145 -137 145 -21 0 -52 -9 -70 -20z
m126 -44 c71 -76 2 -224 -85 -184 -64 30 -73 150 -15 195 27 21 75 15 100 -11z"/>
<path d="M6540 9175 l0 -145 30 0 30 0 0 145 0 145 -30 0 -30 0 0 -145z"/>
<path d="M6650 9312 c0 -4 23 -69 52 -145 49 -127 55 -138 77 -135 21 3 31 21
76 138 49 126 51 135 33 138 -27 5 -31 -1 -63 -93 -16 -44 -32 -91 -37 -104
-8 -21 -14 -10 -46 84 -33 96 -41 110 -65 116 -15 4 -27 4 -27 1z"/>
<path d="M7123 9310 c-13 -5 -23 -16 -23 -25 0 -13 9 -14 55 -9 62 8 85 -4 85
-42 0 -20 -5 -24 -30 -24 -37 0 -89 -21 -113 -44 -24 -25 -22 -91 3 -116 24
-24 90 -27 124 -5 21 14 24 14 29 0 4 -8 16 -15 28 -15 21 0 21 3 17 108 -5
116 -17 154 -55 171 -28 13 -89 13 -120 1z"/>
<path d="M3178 5419 c-28 -16 -123 -166 -171 -270 -48 -103 -64 -120 -142
-145 -27 -9 -56 -21 -62 -26 -14 -11 -17 -11 -161 21 -108 23 -249 87 -283
129 -13 16 -38 49 -55 74 -34 49 -102 88 -156 88 -44 1 -107 30 -155 74 l-40
36 -20 -23 c-34 -38 -35 -45 -7 -93 26 -44 27 -50 15 -91 -9 -34 -9 -49 0 -59
7 -8 9 -29 6 -48 -4 -26 -1 -39 14 -52 11 -10 19 -30 19 -51 0 -26 5 -35 24
-42 26 -10 36 -30 36 -68 0 -15 10 -33 25 -45 16 -13 25 -29 25 -48 0 -16 8
-44 19 -62 15 -26 18 -50 16 -117 -2 -92 -9 -102 -61 -94 -29 5 -39 0 -70 -31
-33 -33 -35 -39 -29 -78 11 -65 82 -194 126 -230 45 -36 51 -70 18 -112 l-21
-27 26 -20 c14 -11 31 -30 37 -41 6 -11 -7 -2 -28 19 -85 85 -314 126 -424 76
-42 -19 -222 -165 -278 -227 -35 -38 -84 -35 -173 10 -63 32 -81 36 -144 36
-86 0 -156 -21 -224 -68 -27 -19 -109 -58 -182 -87 l-131 -52 1 -165 c1 -205
18 -298 71 -400 43 -82 48 -102 37 -141 -16 -58 53 -128 231 -236 154 -92 169
-120 114 -218 l-30 -52 242 -102 c133 -56 253 -101 266 -101 25 0 242 113 473
246 172 99 183 104 338 159 191 67 328 140 345 184 11 28 -39 61 -93 61 -123
1 -175 39 -223 165 -17 44 -49 112 -72 150 l-42 70 3 190 c2 105 8 209 13 231
7 36 5 48 -21 96 -30 56 -66 137 -57 128 3 -3 26 -47 52 -97 64 -130 111 -163
230 -163 39 0 69 10 140 45 85 43 96 46 174 47 l82 1 47 -46 c26 -25 59 -51
75 -56 15 -6 32 -22 37 -37 14 -36 147 -164 171 -164 25 0 62 -36 83 -81 9
-19 11 -25 4 -15 -36 54 -66 79 -95 80 -17 0 -29 4 -27 7 2 4 -3 9 -11 13 -14
5 -45 -28 -45 -48 0 -9 72 -3 105 9 15 6 17 5 9 -4 -22 -24 -92 -33 -124 -16
-60 31 -74 16 -39 -42 22 -35 22 -40 7 -173 -3 -24 -1 -25 39 -22 33 3 44 -1
52 -17 15 -27 14 -83 -4 -169 -13 -61 -13 -77 -2 -105 20 -47 83 -104 155
-139 58 -29 67 -31 95 -19 59 24 75 24 119 -2 73 -43 91 -65 84 -103 -6 -29
-3 -35 22 -48 29 -15 52 -58 66 -121 6 -27 1 -36 -41 -77 -74 -71 -222 -157
-295 -170 -81 -14 -102 -35 -94 -96 18 -141 18 -183 -3 -299 -28 -161 -55
-437 -49 -512 6 -78 45 -140 102 -159 22 -7 41 -10 45 -7 3 3 7 36 9 73 3 52
-1 81 -18 127 -13 33 -25 79 -27 103 -5 40 -4 42 20 42 14 0 29 -4 32 -10 10
-17 25 -11 25 9 0 33 61 46 120 27 79 -26 133 -21 173 14 56 49 107 36 158
-40 16 -24 29 -47 29 -52 0 -4 28 -8 63 -9 34 -1 73 -4 87 -8 65 -18 160 22
140 59 -11 21 15 96 38 105 18 7 42 -12 42 -34 0 -41 3 -41 582 -41 l559 0 -1
205 -1 205 -469 0 -468 0 -6 92 c-3 51 -9 253 -12 448 -4 195 -7 390 -8 432
-2 92 -11 106 -53 84 -28 -14 -33 -14 -67 5 -32 17 -37 17 -42 4 -4 -8 -4 -25
0 -38 6 -27 -10 -93 -25 -103 -13 -8 -56 32 -76 70 -8 16 -13 41 -10 56 3 15
0 36 -7 46 -7 10 -16 35 -20 54 -3 19 -17 46 -30 60 -14 14 -26 36 -28 50 -2
18 -10 26 -28 28 -54 6 -67 13 -92 51 -14 22 -21 38 -14 36 6 -3 19 7 29 21
17 22 17 30 6 75 -8 29 -21 55 -34 63 -23 15 -37 44 -55 113 -8 32 -26 56 -83
108 -84 78 -107 110 -107 147 0 28 29 98 40 98 4 0 19 12 34 26 14 15 38 28
52 30 14 1 34 10 44 19 13 12 27 15 49 10 47 -10 70 2 93 51 18 40 19 49 8 89
-7 25 -10 59 -6 76 6 30 1 38 -63 101 -39 37 -76 68 -84 68 -20 0 -37 21 -37
47 0 17 -6 23 -21 23 -11 0 -33 6 -47 14 -15 8 -35 17 -45 20 -11 3 -21 15
-24 26 -3 10 -16 26 -30 35 -21 14 -24 21 -18 55 8 47 -1 80 -21 80 -27 0 -27
30 1 69 23 34 26 45 20 86 -6 39 -4 50 13 68 27 28 41 96 36 176 -2 40 2 74
10 90 15 29 8 57 -24 99 -19 23 -19 27 -5 49 9 13 13 32 10 42 -5 16 -22 19
-133 24 -70 4 -164 16 -210 27 -94 23 -101 23 -124 9z m-2015 -2389 c56 -44
40 -148 -26 -169 -73 -25 -133 45 -107 124 21 63 83 84 133 45z m492 -55 c27
-26 30 -41 15 -80 -20 -53 -100 -52 -121 1 -13 35 1 76 32 91 35 18 47 16 74
-12z"/>
<path d="M2668 3749 c-20 -5 -58 -22 -85 -38 -70 -43 -133 -57 -195 -42 -27 6
-55 8 -60 4 -6 -3 -9 -2 -6 3 3 5 -10 19 -29 31 -26 18 -35 20 -39 9 -3 -7 -4
-72 -2 -144 2 -71 0 -128 -4 -125 -5 2 -8 -30 -8 -73 0 -73 2 -80 40 -141 22
-35 54 -101 71 -147 31 -86 62 -132 81 -120 7 4 8 2 4 -4 -11 -18 29 -32 92
-32 33 0 73 -6 89 -12 32 -15 109 -95 99 -105 -3 -3 -6 -1 -6 6 0 7 -5 9 -12
5 -6 -4 -8 -3 -4 4 3 6 2 14 -4 17 -13 8 -42 -14 -34 -26 3 -5 0 -8 -8 -7 -8
2 -12 -5 -10 -17 2 -13 0 -16 -5 -8 -6 8 -15 7 -33 -7 -14 -10 -22 -22 -18
-26 4 -4 14 -2 21 5 11 9 17 7 28 -6 13 -16 12 -17 -3 -4 -17 13 -23 8 -19
-13 1 -5 -9 -2 -21 6 -22 15 -28 14 -86 -17 -34 -17 -58 -36 -54 -40 4 -5 2
-5 -4 -2 -16 9 -263 -76 -336 -115 -32 -17 -55 -35 -51 -41 3 -5 1 -7 -5 -3
-14 9 -84 -33 -76 -46 4 -6 1 -8 -7 -6 -17 7 -90 -32 -83 -43 3 -5 -3 -6 -12
-2 -13 5 -15 3 -9 -7 5 -9 4 -11 -3 -6 -12 7 -202 -93 -202 -106 0 -3 8 -9 18
-11 15 -4 15 -5 0 -6 -9 0 -20 3 -23 9 -3 5 -38 -6 -80 -27 l-75 -37 -45 16
c-25 10 -53 15 -63 12 -11 -4 -13 -3 -5 3 13 10 9 12 -143 74 -53 21 -101 36
-106 32 -6 -3 -8 -2 -5 4 3 5 -28 24 -70 41 -57 24 -79 29 -89 21 -8 -6 -11
-16 -7 -22 3 -6 1 -7 -5 -3 -13 8 -52 -49 -52 -77 0 -11 18 -25 53 -40 44 -20
54 -21 62 -10 9 12 11 10 11 -6 0 -11 -4 -17 -8 -15 -4 3 -8 -13 -8 -36 0 -22
-7 -57 -17 -78 -9 -20 -17 -41 -17 -47 -1 -12 -36 -14 -52 -3 -6 5 -17 1 -24
-8 -11 -13 -11 -20 3 -44 14 -23 15 -37 7 -79 -5 -28 -14 -61 -20 -71 -6 -11
-8 -25 -5 -30 3 -6 1 -10 -4 -10 -6 0 -11 -13 -11 -28 0 -22 8 -33 37 -49 21
-11 52 -24 68 -27 44 -11 75 -34 75 -57 0 -11 -11 -37 -25 -57 -34 -50 -35
-124 -3 -146 12 -9 35 -16 50 -16 34 0 108 -64 149 -129 18 -28 30 -39 33 -30
12 37 16 41 12 13 -3 -17 0 -37 7 -45 8 -9 6 -8 -7 1 -18 14 -19 14 -7 -8 14
-26 51 -208 51 -250 0 -26 52 -117 61 -108 3 3 4 -43 3 -102 l-2 -107 33 -35
c50 -53 97 -194 96 -288 0 -40 3 -71 7 -68 9 5 12 -28 12 -140 0 -75 3 -95 19
-116 34 -42 125 -59 204 -37 34 9 37 12 25 26 -12 15 -11 15 9 5 18 -10 35 -7
99 19 42 17 92 33 110 36 18 3 31 9 29 13 -3 4 2 11 11 14 8 3 12 2 9 -4 -10
-16 4 -12 35 12 21 15 27 25 19 34 -7 9 -5 12 8 10 15 -1 19 9 24 54 3 30 2
60 -3 67 -7 9 -3 11 14 8 15 -3 34 5 53 22 28 24 28 25 3 10 -21 -13 -29 -14
-34 -4 -4 6 -4 9 1 5 4 -4 14 -3 22 3 7 7 23 13 36 14 36 4 37 4 37 16 0 6 -6
7 -12 2 -7 -4 -2 7 12 24 14 17 28 28 33 26 4 -2 7 4 8 14 0 13 2 14 6 4 3 -8
-2 -20 -12 -27 -9 -7 -14 -17 -10 -23 4 -7 -1 -8 -12 -4 -15 5 -16 4 -5 -8 11
-12 16 -10 33 10 16 20 19 35 16 83 -2 35 -1 54 4 46 7 -10 9 -11 9 0 0 7 14
18 30 23 17 6 30 14 30 17 0 4 14 8 31 9 40 3 145 56 141 72 -1 7 2 10 6 7 5
-3 18 4 28 16 13 14 15 22 7 25 -8 3 -8 14 -1 41 14 51 35 71 80 78 23 4 35
11 32 18 -3 6 1 4 8 -4 14 -15 42 -35 67 -47 7 -3 22 -1 33 6 11 7 23 10 26 7
3 -3 -1 -6 -9 -6 -8 0 0 -9 17 -19 18 -11 35 -24 39 -30 3 -6 11 -9 16 -5 5 3
9 2 8 -3 -5 -18 25 -61 45 -65 39 -8 336 4 330 13 -3 5 2 6 11 2 10 -3 21 0
26 8 6 10 9 10 9 2 0 -7 4 -13 9 -13 4 0 6 11 3 25 -2 14 -9 22 -15 18 -6 -3
-7 -1 -3 5 4 7 -4 27 -17 44 -14 18 -28 54 -31 80 -6 40 -3 54 18 90 15 26 25
61 26 88 3 71 1 80 -15 80 -9 0 -32 7 -53 17 -20 9 -41 15 -45 14 -5 -1 -6 3
-2 9 3 5 -4 23 -16 40 -41 55 -42 117 -5 450 8 74 22 171 30 215 20 103 20
136 0 206 -15 53 -15 60 0 89 17 36 11 59 -25 83 -11 8 -16 18 -11 21 6 3 12
-1 16 -9 3 -9 12 -12 23 -9 14 4 15 4 4 -4 -17 -12 0 -24 19 -12 9 5 19 5 27
-2 8 -6 32 -8 60 -4 53 7 211 98 275 159 38 36 40 41 34 79 -8 47 -33 101 -45
94 -5 -3 -16 3 -26 14 -13 14 -16 29 -12 55 6 34 3 37 -46 70 -51 35 -109 46
-122 25 -9 -15 -60 -12 -101 5 -20 8 -41 12 -48 8 -6 -3 -8 -3 -4 2 7 7 -32
45 -46 45 -16 0 -86 90 -92 117 -3 18 1 74 11 124 11 61 13 95 7 101 -6 6 -8
17 -5 25 5 12 -4 14 -43 12 l-49 -3 3 44 c9 121 5 161 -18 185 -15 16 -20 30
-15 44 7 24 13 25 48 12 21 -8 28 -5 45 18 l20 28 -20 31 c-22 34 -36 39 -58
20 -12 -11 -12 -10 -2 3 10 13 9 19 -4 30 -10 8 -23 29 -31 47 -8 19 -25 37
-40 43 -15 5 -48 30 -75 55 -46 43 -49 44 -110 43 -35 -1 -80 -5 -100 -10z
m-577 -2238 c-11 -7 -10 -10 5 -14 16 -4 16 -5 -3 -6 -12 0 -25 -6 -29 -13 -5
-8 -2 -9 10 -5 13 5 19 1 23 -13 3 -11 11 -20 18 -20 7 0 16 -7 19 -16 5 -13
9 -14 21 -4 8 7 13 15 11 19 -7 10 55 11 75 1 10 -6 20 -6 23 -2 3 5 27 8 53
7 65 -3 63 -2 63 -25 0 -17 -3 -19 -19 -11 -17 10 -31 6 -31 -9 0 -7 51 -34
60 -33 12 3 4 -43 -10 -57 -15 -15 -133 -23 -124 -8 4 7 -21 5 -79 -7 -9 -2
-15 1 -11 6 3 5 1 9 -5 9 -5 0 -12 -3 -15 -8 -7 -12 -90 -6 -94 7 -2 6 -9 8
-15 4 -33 -20 -94 -19 -118 3 -15 14 -19 29 -18 65 2 26 5 47 8 46 3 -1 6 3 6
8 0 6 -3 9 -7 8 -5 -2 -8 3 -9 10 0 6 -2 20 -4 29 -2 10 2 21 8 25 7 3 9 3 5
-2 -4 -4 -3 -14 3 -22 6 -7 8 -13 4 -13 -4 0 -2 -7 5 -15 8 -9 22 -12 40 -8
22 4 35 -1 54 -20 27 -27 36 -80 16 -92 -5 -3 -10 -11 -10 -18 0 -8 3 -8 12 1
9 9 16 8 32 -5 12 -10 15 -11 9 -3 -7 8 -13 33 -13 56 0 27 -5 44 -14 47 -8 3
-13 14 -11 24 2 10 4 20 4 23 1 3 6 -2 12 -10 9 -12 10 -10 6 8 -6 24 18 62
38 62 5 0 4 -4 -4 -9z m-216 -31 c17 -14 21 -75 5 -85 -6 -4 -7 -13 -1 -23 6
-12 4 -21 -5 -30 -13 -12 -14 -10 -8 12 4 17 2 26 -6 26 -6 0 -9 -4 -6 -8 3
-5 -8 -6 -25 -4 -27 4 -29 2 -29 -31 0 -25 -5 -36 -17 -39 -16 -4 -18 3 -15
81 4 129 4 130 52 121 22 -4 46 -13 55 -20z"/>
<path d="M2183 3 c1204 -2 3170 -2 4370 0 1200 1 216 2 -2188 2 -2404 0 -3385
-1 -2182 -2z"/>
</g>
</svg>
